<svg width="25.000000" height="25.000000" viewBox="0 0 25 25" fill="none" xmlns="http://www.w3.org/2000/svg" xmlns:xlink="http://www.w3.org/1999/xlink">
	<desc>
			Created with Pixso.
	</desc>
	<defs>
		<clipPath id="clip20_815">
			<rect id="002-notification-1" rx="-0.500000" width="24.000000" height="24.000000" transform="translate(0.500000 0.500000)" fill="white" fill-opacity="0"/>
		</clipPath>
	</defs>
	<rect id="002-notification-1" rx="-0.500000" width="24.000000" height="24.000000" transform="translate(0.500000 0.500000)" fill="#FFFFFF" fill-opacity="0"/>
	<g clip-path="url(#clip20_815)">
		<path id="Vector" d="M11.44 25C9.28 25 7.53 23.24 7.53 21.09C7.53 20.66 7.88 20.31 8.31 20.31C8.74 20.31 9.09 20.66 9.09 21.09C9.09 22.38 10.15 23.43 11.44 23.43C12.73 23.43 13.78 22.38 13.78 21.09C13.78 20.66 14.13 20.31 14.56 20.31C14.99 20.31 15.34 20.66 15.34 21.09C15.34 23.24 13.59 25 11.44 25Z" fill="#FE5C73" fill-opacity="1.000000" fill-rule="nonzero"/>
		<path id="Vector" d="M20.03 21.87L2.84 21.87C1.84 21.87 1.02 21.05 1.02 20.05C1.02 19.51 1.25 19.01 1.66 18.66C1.68 18.64 1.71 18.62 1.74 18.6C3.27 17.26 4.15 15.35 4.15 13.32L4.15 10.41C4.15 6.39 7.42 3.12 11.44 3.12C11.6 3.12 11.78 3.12 11.95 3.15C12.38 3.22 12.66 3.63 12.59 4.05C12.52 4.48 12.11 4.76 11.69 4.69C11.61 4.68 11.52 4.68 11.44 4.68C8.28 4.68 5.71 7.25 5.71 10.41L5.71 13.32C5.71 15.83 4.6 18.22 2.68 19.85C2.67 19.86 2.65 19.87 2.64 19.89C2.61 19.92 2.58 19.98 2.58 20.05C2.58 20.19 2.7 20.31 2.84 20.31L20.03 20.31C20.17 20.31 20.29 20.19 20.29 20.05C20.29 19.97 20.26 19.92 20.24 19.89C20.22 19.87 20.21 19.86 20.19 19.85C18.27 18.21 17.17 15.83 17.17 13.32L17.17 12.18C17.17 11.75 17.52 11.4 17.95 11.4C18.38 11.4 18.73 11.75 18.73 12.18L18.73 13.32C18.73 15.35 19.6 17.27 21.14 18.6C21.16 18.62 21.19 18.64 21.22 18.66C21.62 19.01 21.85 19.51 21.85 20.05C21.85 21.05 21.04 21.87 20.03 21.87Z" fill="#FE5C73" fill-opacity="1.000000" fill-rule="nonzero"/>
		<path id="Vector" d="M18.73 10.41C15.86 10.41 13.52 8.08 13.52 5.2C13.52 2.33 15.86 0 18.73 0C21.6 0 23.94 2.33 23.94 5.2C23.94 8.08 21.6 10.41 18.73 10.41ZM18.73 1.56C16.72 1.56 15.08 3.19 15.08 5.2C15.08 7.21 16.72 8.85 18.73 8.85C20.74 8.85 22.37 7.21 22.37 5.2C22.37 3.19 20.74 1.56 18.73 1.56Z" fill="#FE5C73" fill-opacity="1.000000" fill-rule="nonzero"/>
	</g>
</svg>
