<svg width="19.140625" height="19.140625" viewBox="0 0 19.1406 19.1406" fill="none" xmlns="http://www.w3.org/2000/svg" xmlns:xlink="http://www.w3.org/1999/xlink">
	<defs/>
	<path id="Vector" d="M18.9 17.78L14.3 13.17C15.44 11.78 16.13 10 16.13 8.06C16.13 3.61 12.51 0 8.06 0C3.6 0 0 3.61 0 8.06C0 12.51 3.6 16.13 8.06 16.13C10 16.13 11.78 15.44 13.17 14.3L17.77 18.9C18.08 19.21 18.59 19.21 18.9 18.9C19.21 18.59 19.21 18.08 18.9 17.78ZM8.06 14.52C4.5 14.52 1.6 11.62 1.6 8.06C1.6 4.5 4.5 1.6 8.06 1.6C11.62 1.6 14.53 4.5 14.53 8.06C14.53 11.62 11.62 14.52 8.06 14.52Z" fill="#718EBF" fill-opacity="1.000000" fill-rule="nonzero"/>
</svg>
