<svg width="25.000000" height="25.000000" viewBox="0 0 25 25" fill="none" xmlns="http://www.w3.org/2000/svg" xmlns:xlink="http://www.w3.org/1999/xlink">
	<desc>
			Created with Pixso.
	</desc>
	<defs/>
	<path id="Vector" d="M13.28 25L11.71 25C10.44 25 9.41 23.96 9.41 22.69L9.41 22.16C8.87 21.99 8.35 21.77 7.84 21.51L7.47 21.89C6.55 22.8 5.1 22.77 4.21 21.89L3.1 20.78C2.22 19.89 2.19 18.44 3.1 17.52L3.48 17.15C3.22 16.64 3 16.12 2.83 15.58L2.3 15.58C1.03 15.58 0 14.55 0 13.28L0 11.71C0 10.44 1.03 9.41 2.3 9.41L2.83 9.41C3 8.87 3.22 8.35 3.48 7.84L3.1 7.47C2.19 6.56 2.22 5.1 3.1 4.21L4.21 3.1C5.1 2.21 6.56 2.19 7.47 3.1L7.84 3.48C8.35 3.22 8.87 3 9.41 2.83L9.41 2.3C9.41 1.03 10.44 0 11.71 0L13.28 0C14.55 0 15.58 1.03 15.58 2.3L15.58 2.83C16.12 3 16.64 3.22 17.15 3.48L17.52 3.1C18.44 2.19 19.89 2.22 20.78 3.1L21.89 4.21C22.77 5.1 22.8 6.55 21.89 7.47L21.51 7.84C21.77 8.35 21.99 8.87 22.16 9.41L22.69 9.41C23.96 9.41 25 10.44 25 11.71L25 13.28C25 14.55 23.96 15.58 22.69 15.58L22.16 15.58C21.99 16.12 21.77 16.64 21.51 17.15L21.89 17.52C22.8 18.43 22.77 19.89 21.89 20.78L20.78 21.89C19.89 22.78 18.43 22.8 17.52 21.89L17.15 21.51C16.64 21.77 16.12 21.99 15.58 22.16L15.58 22.69C15.58 23.96 14.55 25 13.28 25ZM8.09 19.97C8.79 20.39 9.54 20.7 10.32 20.9C10.65 20.99 10.87 21.28 10.87 21.61L10.87 22.69C10.87 23.15 11.25 23.53 11.71 23.53L13.28 23.53C13.74 23.53 14.12 23.15 14.12 22.69L14.12 21.61C14.12 21.28 14.34 20.99 14.67 20.9C15.45 20.7 16.2 20.39 16.9 19.97C17.19 19.8 17.56 19.85 17.79 20.09L18.56 20.85C18.89 21.18 19.42 21.18 19.74 20.85L20.85 19.74C21.17 19.42 21.18 18.89 20.85 18.56L20.09 17.79C19.85 17.56 19.8 17.19 19.97 16.9C20.39 16.2 20.7 15.45 20.9 14.67C20.99 14.34 21.28 14.12 21.61 14.12L22.69 14.12C23.15 14.12 23.53 13.74 23.53 13.28L23.53 11.71C23.53 11.25 23.15 10.87 22.69 10.87L21.61 10.87C21.28 10.87 20.99 10.65 20.9 10.32C20.7 9.54 20.39 8.79 19.97 8.09C19.8 7.8 19.85 7.43 20.09 7.2L20.85 6.43C21.18 6.1 21.18 5.57 20.85 5.25L19.74 4.14C19.42 3.82 18.89 3.81 18.56 4.14L17.79 4.9C17.56 5.14 17.19 5.19 16.9 5.02C16.2 4.6 15.45 4.29 14.67 4.09C14.34 4 14.12 3.71 14.12 3.38L14.12 2.3C14.12 1.84 13.74 1.46 13.28 1.46L11.71 1.46C11.25 1.46 10.87 1.84 10.87 2.3L10.87 3.38C10.87 3.71 10.65 4 10.32 4.09C9.54 4.29 8.79 4.6 8.09 5.02C7.8 5.19 7.43 5.14 7.2 4.9L6.43 4.14C6.1 3.81 5.57 3.81 5.25 4.14L4.14 5.25C3.82 5.57 3.81 6.1 4.14 6.43L4.9 7.2C5.14 7.43 5.19 7.8 5.02 8.09C4.6 8.79 4.29 9.54 4.09 10.32C4 10.65 3.71 10.87 3.38 10.87L2.3 10.87C1.84 10.87 1.46 11.25 1.46 11.71L1.46 13.28C1.46 13.74 1.84 14.12 2.3 14.12L3.38 14.12C3.71 14.12 4 14.34 4.09 14.67C4.29 15.45 4.6 16.2 5.02 16.9C5.19 17.19 5.14 17.56 4.9 17.79L4.14 18.56C3.81 18.89 3.81 19.42 4.14 19.74L5.25 20.85C5.57 21.17 6.1 21.18 6.43 20.85L7.2 20.09C7.37 19.91 7.73 19.76 8.09 19.97Z" fill="#718EBF" fill-opacity="1.000000" fill-rule="nonzero"/>
</svg>
